<svg width="176" height="42" viewBox="0 0 176 42" fill="none" xmlns="http://www.w3.org/2000/svg">
<path d="M9.236 14.612H10.236V13.612H9.236V14.612ZM9.236 21.056H8.236L10.2283 21.18L9.236 21.056ZM11.036 16.556L11.827 17.1679L11.8324 17.1607L11.036 16.556ZM20.936 30.704L20.0488 31.1654L20.06 31.1869L20.0722 31.2079L20.936 30.704ZM23.528 31.568L24.5144 31.4036L24.3751 30.568H23.528V31.568ZM23.6 32V33H24.7805L24.5864 31.8356L23.6 32ZM14.852 32L13.8656 31.8356L13.6715 33H14.852V32ZM14.924 31.568V30.568H14.0769L13.9376 31.4036L14.924 31.568ZM17.516 30.668L18.4175 31.1007L18.4175 31.1007L17.516 30.668ZM17.156 16.988L16.2985 17.5025L16.3038 17.5114L16.3094 17.5202L17.156 16.988ZM11.936 16.88L12.6431 17.5871L12.6487 17.5815L12.6542 17.5758L11.936 16.88ZM10.28 19.724L9.32552 19.4257L9.32534 19.4263L10.28 19.724ZM9.668 30.704L8.77357 31.1512L8.7809 31.1659L8.78871 31.1803L9.668 30.704ZM12.26 31.568L13.2464 31.4036L13.1071 30.568H12.26V31.568ZM12.332 32V33H13.5125L13.3184 31.8356L12.332 32ZM3.548 32L2.56161 31.8356L2.36754 33H3.548V32ZM3.62 31.568V30.568H2.77287L2.63361 31.4036L3.62 31.568ZM6.248 30.704L7.12729 31.1803L7.13132 31.1729L7.13522 31.1654L6.248 30.704ZM6.176 16.592L5.26563 17.0058L5.27061 17.0167L5.27584 17.0276L6.176 16.592ZM5.528 15.872L4.928 16.672L4.94318 16.6834L4.95879 16.6942L5.528 15.872ZM4.556 15.476L4.41457 16.466L4.42384 16.4672L4.556 15.476ZM3.152 15.404L2.16813 15.5829L2.31742 16.404H3.152V15.404ZM3.08 15.008L2.95456 14.0159L1.9073 14.1483L2.09613 15.1869L3.08 15.008ZM8.236 14.612V21.056H10.236V14.612H8.236ZM10.2283 21.18C10.424 19.6145 10.9616 18.2866 11.827 17.1679L10.245 15.9441C9.14244 17.3694 8.48003 19.0415 8.24372 20.932L10.2283 21.18ZM11.8324 17.1607C12.6267 16.1146 13.6396 15.612 14.96 15.612V13.612C13.0164 13.612 11.4133 14.4054 10.2396 15.9513L11.8324 17.1607ZM14.96 15.612C16.6302 15.612 17.702 16.0464 18.3683 16.7431C19.0425 17.4482 19.468 18.5952 19.468 20.372H21.468C21.468 18.3088 20.9755 16.5758 19.8137 15.3609C18.644 14.1376 16.9618 13.612 14.96 13.612V15.612ZM19.468 20.372V26.06H21.468V20.372H19.468ZM19.468 26.06C19.468 27.3241 19.5073 28.3723 19.59 29.1933C19.6685 29.9715 19.7964 30.68 20.0488 31.1654L21.8232 30.2426C21.7636 30.128 21.6575 29.7625 21.58 28.9927C21.5067 28.2657 21.468 27.2919 21.468 26.06H19.468ZM20.0722 31.2079C20.4012 31.7718 20.942 32.1081 21.5198 32.3007C22.0926 32.4916 22.7751 32.568 23.528 32.568V30.568C22.8889 30.568 22.4434 30.5004 22.1522 30.4033C21.866 30.3079 21.8068 30.2122 21.7998 30.2001L20.0722 31.2079ZM22.5416 31.7324L22.6136 32.1644L24.5864 31.8356L24.5144 31.4036L22.5416 31.7324ZM23.6 31H14.852V33H23.6V31ZM15.8384 32.1644L15.9104 31.7324L13.9376 31.4036L13.8656 31.8356L15.8384 32.1644ZM14.924 32.568C15.6991 32.568 16.3998 32.4891 16.98 32.2877C17.5674 32.0837 18.1205 31.7195 18.4175 31.1007L16.6145 30.2353C16.614 30.2362 16.6128 30.2387 16.6088 30.2435C16.6046 30.2487 16.595 30.2591 16.5764 30.2737C16.5376 30.304 16.4611 30.3507 16.324 30.3983C16.0402 30.4969 15.5889 30.568 14.924 30.568V32.568ZM18.4175 31.1007C18.6493 30.6179 18.7647 29.8879 18.8362 29.0723C18.9118 28.209 18.948 27.0935 18.948 25.736H16.948C16.948 27.0665 16.9122 28.117 16.8438 28.8977C16.7713 29.7261 16.6707 30.1181 16.6145 30.2353L18.4175 31.1007ZM18.948 25.736V20.732H16.948V25.736H18.948ZM18.948 20.732C18.948 19.0002 18.6774 17.5293 18.0026 16.4558L16.3094 17.5202C16.6906 18.1267 16.948 19.1518 16.948 20.732H18.948ZM18.0135 16.4735C17.2985 15.2818 16.1241 14.728 14.708 14.728V16.728C15.5479 16.728 16.0055 17.0142 16.2985 17.5025L18.0135 16.4735ZM14.708 14.728C13.3432 14.728 12.1569 15.2148 11.2178 16.1842L12.6542 17.5758C13.2031 17.0092 13.8648 16.728 14.708 16.728V14.728ZM11.2289 16.1729C10.3548 17.047 9.72659 18.1423 9.32552 19.4257L11.2345 20.0223C11.5534 19.0017 12.0292 18.201 12.6431 17.5871L11.2289 16.1729ZM9.32534 19.4263C8.60039 21.7512 8.236 24.0954 8.236 26.456H10.236C10.236 24.3046 10.5676 22.1608 11.2347 20.0217L9.32534 19.4263ZM8.236 26.456C8.236 27.6007 8.27234 28.556 8.34913 29.3112C8.42216 30.0293 8.54152 30.6871 8.77357 31.1512L10.5624 30.2568C10.5065 30.1449 10.4098 29.8067 10.3389 29.1088C10.2717 28.448 10.236 27.5673 10.236 26.456H8.236ZM8.78871 31.1803C9.106 31.7661 9.65563 32.108 10.2338 32.3007C10.808 32.4921 11.4973 32.568 12.26 32.568V30.568C11.6067 30.568 11.156 30.4999 10.8662 30.4033C10.7256 30.3564 10.6428 30.3093 10.5976 30.2761C10.5558 30.2454 10.5474 30.2279 10.5473 30.2277L8.78871 31.1803ZM11.2736 31.7324L11.3456 32.1644L13.3184 31.8356L13.2464 31.4036L11.2736 31.7324ZM12.332 31H3.548V33H12.332V31ZM4.53439 32.1644L4.60639 31.7324L2.63361 31.4036L2.56161 31.8356L4.53439 32.1644ZM3.62 32.568C4.39352 32.568 5.09044 32.4923 5.66932 32.302C6.25057 32.1109 6.80768 31.7703 7.12729 31.1803L5.36871 30.2277C5.36845 30.2282 5.36668 30.2315 5.36083 30.238C5.35473 30.2448 5.34239 30.257 5.32008 30.2733C5.27392 30.3068 5.18901 30.3546 5.04468 30.402C4.74756 30.4997 4.28648 30.568 3.62 30.568V32.568ZM7.13522 31.1654C7.38848 30.6783 7.51592 29.9617 7.59411 29.1738C7.67672 28.3414 7.716 27.2757 7.716 25.988H5.716C5.716 27.2443 5.67728 28.2366 5.60389 28.9762C5.52608 29.7603 5.41953 30.1297 5.36078 30.2426L7.13522 31.1654ZM7.716 25.988V23.108H5.716V25.988H7.716ZM7.716 23.108C7.716 21.2957 7.67084 19.8217 7.57758 18.6964C7.48887 17.626 7.34796 16.7182 7.07616 16.1564L5.27584 17.0276C5.36404 17.2098 5.49313 17.76 5.58442 18.8616C5.67116 19.9083 5.716 21.3203 5.716 23.108H7.716ZM7.08637 16.1782C6.87193 15.7064 6.513 15.3377 6.09721 15.0498L4.95879 16.6942C5.167 16.8383 5.24007 16.9496 5.26563 17.0058L7.08637 16.1782ZM6.128 15.072C5.70174 14.7523 5.21634 14.5552 4.68816 14.4848L4.42384 16.4672C4.61566 16.4928 4.77826 16.5597 4.928 16.672L6.128 15.072ZM4.69742 14.486C4.29211 14.4281 3.76932 14.404 3.152 14.404V16.404C3.73468 16.404 4.14789 16.4278 4.41458 16.4659L4.69742 14.486ZM4.13587 15.2251L4.06387 14.8291L2.09613 15.1869L2.16813 15.5829L4.13587 15.2251ZM3.20544 16.0001C5.25365 15.7411 7.26373 15.612 9.236 15.612V13.612C7.17627 13.612 5.08235 13.7469 2.95456 14.0159L3.20544 16.0001ZM40.3898 29.264L39.4092 29.4601L39.4103 29.4657L40.3898 29.264ZM43.2338 29.984L44.1282 29.5368L43.681 28.6424L42.7866 29.0896L43.2338 29.984ZM43.4138 30.344L44.0138 31.144L44.6814 30.6433L44.3082 29.8968L43.4138 30.344ZM42.6578 30.884L43.1819 31.7357L43.2048 31.7215L43.227 31.7062L42.6578 30.884ZM40.7498 31.676L41.0801 32.6199L40.7498 31.676ZM37.9778 32.18L37.005 32.4116L37.1879 33.18H37.9778V32.18ZM37.6178 27.356H38.6178L36.6754 27.0216L37.6178 27.356ZM35.5298 30.992L34.795 30.3137L34.7942 30.3145L35.5298 30.992ZM28.4018 31.172L27.7152 31.899L27.7255 31.9088L27.7362 31.9183L28.4018 31.172ZM37.6178 22.028L37.6212 23.028L38.6178 23.0246V22.028H37.6178ZM36.8618 16.772L35.9865 17.2557L35.9865 17.2557L36.8618 16.772ZM32.1818 15.98L32.8065 16.7609L32.8065 16.7609L32.1818 15.98ZM31.2098 17.24L30.2714 16.8943L30.265 16.9117L30.2593 16.9293L31.2098 17.24ZM29.9858 15.512L29.5386 14.6176L29.5386 14.6176L29.9858 15.512ZM38.5178 16.088L37.8442 16.8273L37.8534 16.8354L38.5178 16.088ZM30.5258 30.344L29.7184 30.934L29.7239 30.9416L29.7296 30.9491L30.5258 30.344ZM35.4218 29.804L36.1838 30.4517L36.1915 30.4423L35.4218 29.804ZM37.0778 26.564L36.11 26.3124L36.1082 26.3192L36.1065 26.3261L37.0778 26.564ZM37.6178 22.856L38.6171 22.8937L38.6566 21.8466L37.6088 21.856L37.6178 22.856ZM31.7138 24.332L31.1113 23.5338L31.1041 23.5394L31.7138 24.332ZM39.1378 20.372V24.008H41.1378V20.372H39.1378ZM39.1378 24.008C39.1378 26.6524 39.2184 28.506 39.4092 29.4601L41.3704 29.0679C41.2252 28.342 41.1378 26.6916 41.1378 24.008H39.1378ZM39.4103 29.4657C39.5171 29.9843 39.7238 30.4982 40.1147 30.8891C40.53 31.3044 41.0602 31.488 41.6138 31.488V29.488C41.5574 29.488 41.5348 29.4793 41.5332 29.4787C41.5318 29.4782 41.5323 29.4783 41.5333 29.4789C41.5342 29.4795 41.5328 29.4788 41.5289 29.4749C41.5118 29.4578 41.4305 29.3597 41.3692 29.0623L39.4103 29.4657ZM41.6138 31.488C42.2584 31.488 42.9682 31.2348 43.681 30.8784L42.7866 29.0896C42.1553 29.4052 41.7851 29.488 41.6138 29.488V31.488ZM42.3394 30.4312L42.5194 30.7912L44.3082 29.8968L44.1282 29.5368L42.3394 30.4312ZM42.8138 29.544C42.6359 29.6774 42.3954 29.8494 42.0886 30.0618L43.227 31.7062C43.5442 31.4866 43.8076 31.2986 44.0138 31.144L42.8138 29.544ZM42.1337 30.0323C41.9271 30.1595 41.391 30.3921 40.4194 30.7321L41.0801 32.6199C42.0286 32.2879 42.7645 31.9925 43.1819 31.7357L42.1337 30.0323ZM40.4194 30.7321C39.5504 31.0363 38.7382 31.18 37.9778 31.18V33.18C38.9933 33.18 40.0292 32.9877 41.0801 32.6199L40.4194 30.7321ZM38.9506 31.9484C38.7395 31.0616 38.6178 29.5531 38.6178 27.356H36.6178C36.6178 29.5749 36.7361 31.2824 37.005 32.4116L38.9506 31.9484ZM36.6754 27.0216C36.1821 28.4117 35.5481 29.4979 34.795 30.3137L36.2646 31.6703C37.2395 30.6141 37.9975 29.2763 38.5602 27.6904L36.6754 27.0216ZM34.7942 30.3145C34.1842 30.9769 33.3005 31.36 32.0018 31.36V33.36C33.7271 33.36 35.1954 32.8311 36.2653 31.6695L34.7942 30.3145ZM32.0018 31.36C30.6666 31.36 29.7267 31.0138 29.0674 30.4257L27.7362 31.9183C28.8528 32.9142 30.3129 33.36 32.0018 33.36V31.36ZM29.0884 30.445C28.4589 29.8504 28.1058 29.0282 28.1058 27.86H26.1058C26.1058 29.4758 26.6167 30.8616 27.7152 31.899L29.0884 30.445ZM28.1058 27.86C28.1058 27.0502 28.2876 26.3879 28.619 25.8386C28.9516 25.2874 29.4679 24.7951 30.2189 24.3784C31.7509 23.5285 34.1766 23.0398 37.6212 23.028L37.6144 21.028C34.051 21.0402 31.2207 21.5355 29.2486 22.6296C28.2477 23.1849 27.45 23.9046 26.9065 24.8054C26.362 25.7081 26.1058 26.7378 26.1058 27.86H28.1058ZM38.6178 22.028V20.732H36.6178V22.028H38.6178ZM38.6178 20.732C38.6178 18.9335 38.3601 17.4157 37.737 16.2883L35.9865 17.2557C36.3715 17.9523 36.6178 19.0745 36.6178 20.732H38.6178ZM37.737 16.2883C37.0014 14.9573 35.6543 14.404 34.0538 14.404V16.404C35.1893 16.404 35.7141 16.7627 35.9865 17.2557L37.737 16.2883ZM34.0538 14.404C33.1167 14.404 32.2549 14.6409 31.5571 15.1991L32.8065 16.7609C33.0687 16.5511 33.4549 16.404 34.0538 16.404V14.404ZM31.5571 15.1991C30.9721 15.6671 30.5171 16.2276 30.2714 16.8943L32.1481 17.5857C32.2385 17.3404 32.4315 17.0609 32.8065 16.7609L31.5571 15.1991ZM30.2593 16.9293C29.8904 18.0577 29.5142 18.112 29.3738 18.112V20.112C30.8654 20.112 31.7132 18.9183 32.1603 17.5507L30.2593 16.9293ZM29.3738 18.112C29.2667 18.112 29.2167 18.0967 29.2041 18.092C29.1974 18.0895 29.2129 18.0952 29.2291 18.1134C29.2588 18.1467 29.1858 18.0963 29.1858 17.78H27.1858C27.1858 18.3517 27.3108 18.9673 27.7365 19.4446C28.1816 19.9437 28.7921 20.112 29.3738 20.112V18.112ZM29.1858 17.78C29.1858 17.4128 29.3921 16.9268 30.433 16.4064L29.5386 14.6176C28.1794 15.2971 27.1858 16.3232 27.1858 17.78H29.1858ZM30.433 16.4064C31.4618 15.892 32.7523 15.612 34.3418 15.612V13.612C32.5233 13.612 30.9098 13.932 29.5386 14.6176L30.433 16.4064ZM34.3418 15.612C35.8407 15.612 36.9787 16.0385 37.8443 16.8272L39.1913 15.3488C37.8969 14.1695 36.2508 13.612 34.3418 13.612V15.612ZM37.8534 16.8354C38.6583 17.5508 39.1378 18.6672 39.1378 20.372H41.1378C41.1378 18.2848 40.5373 16.5452 39.1821 15.3406L37.8534 16.8354ZM28.8418 28.004C28.8418 29.1063 29.1127 30.1052 29.7184 30.934L31.3332 29.754C31.0269 29.3348 30.8418 28.7737 30.8418 28.004H28.8418ZM29.7296 30.9491C30.4299 31.8705 31.4934 32.244 32.6858 32.244V30.244C31.9102 30.244 31.5337 30.0175 31.3219 29.7389L29.7296 30.9491ZM32.6858 32.244C34.0583 32.244 35.2292 31.5746 36.1837 30.4516L34.6598 29.1564C33.9823 29.9534 33.3292 30.244 32.6858 30.244V32.244ZM36.1915 30.4423C37.0986 29.3485 37.7231 28.1331 38.0491 26.8019L36.1065 26.3261C35.8565 27.3469 35.3769 28.2915 34.652 29.1657L36.1915 30.4423ZM38.0456 26.8156C38.3763 25.5438 38.5664 24.236 38.6171 22.8937L36.6185 22.8183C36.5731 24.02 36.4033 25.1842 36.11 26.3124L38.0456 26.8156ZM37.6088 21.856C34.8611 21.8808 32.6355 22.3835 31.1114 23.5338L32.3162 25.1302C33.3361 24.3605 35.0464 23.8792 37.6268 23.856L37.6088 21.856ZM31.1041 23.5394C29.6266 24.6759 28.8418 26.1852 28.8418 28.004H30.8418C30.8418 26.8468 31.305 25.9081 32.3235 25.1246L31.1041 23.5394ZM52.2993 15.764V14.764H51.2993V15.764H52.2993ZM52.5153 29.12L51.5269 29.2721L51.5288 29.2844L51.531 29.2967L52.5153 29.12ZM53.1993 30.884L52.5591 31.6522L52.5624 31.655L53.1993 30.884ZM55.8273 31.568L56.8137 31.4036L56.6744 30.568H55.8273V31.568ZM55.8993 32V33H57.0798L56.8857 31.8356L55.8993 32ZM46.2153 32L45.2289 31.8356L45.0349 33H46.2153V32ZM46.2873 31.568V30.568H45.4402L45.3009 31.4036L46.2873 31.568ZM47.6553 31.496L47.5231 30.5047L47.5139 30.5061L47.6553 31.496ZM48.6273 31.1L49.2273 31.9L49.2273 31.9L48.6273 31.1ZM49.2393 30.38L48.3449 29.9328L48.3366 29.9493L48.3289 29.9662L49.2393 30.38ZM49.5993 28.976L50.5885 29.1226L50.5893 29.1174L49.5993 28.976ZM49.7793 15.764H50.7793V14.764H49.7793V15.764ZM46.4673 15.764H45.4673V16.764H46.4673V15.764ZM46.4673 14.972V13.972H45.4673V14.972H46.4673ZM49.7793 14.972V15.972H50.7793V14.972H49.7793ZM51.6153 7.448L50.8441 6.81143L50.843 6.81273L51.6153 7.448ZM61.2273 6.296L60.7742 7.18756L60.786 7.19335L61.2273 6.296ZM62.9193 10.112L62.2389 9.37921L62.2253 9.3918L62.2122 9.40489L62.9193 10.112ZM60.3633 9.896L59.5824 10.5207L59.5903 10.5305L59.5984 10.5401L60.3633 9.896ZM58.4193 6.836L57.6943 7.52475L57.712 7.54334L57.7306 7.561L58.4193 6.836ZM52.2993 14.972H51.2993V15.972H52.2993V14.972ZM58.4193 14.792L58.3739 13.793L58.3735 13.793L58.4193 14.792ZM63.4593 14.612H64.4593V13.612H63.4593V14.612ZM63.8913 30.704L62.9969 31.1512L63.0042 31.1659L63.012 31.1803L63.8913 30.704ZM66.4833 31.568L67.4697 31.4036L67.3304 30.568H66.4833V31.568ZM66.5553 32V33H67.7358L67.5417 31.8356L66.5553 32ZM57.7713 32L56.7849 31.8356L56.5909 33H57.7713V32ZM57.8433 31.568V30.568H56.9962L56.8569 31.4036L57.8433 31.568ZM60.4713 30.704L61.3506 31.1803L61.3546 31.1729L61.3585 31.1654L60.4713 30.704ZM60.7233 18.104L59.7362 18.2641L59.7369 18.2684L60.7233 18.104ZM60.0753 16.448L59.4384 17.219L59.4565 17.2339L59.4753 17.248L60.0753 16.448ZM57.4113 14.764H52.2993V16.764H57.4113V14.764ZM51.2993 15.764V23.864H53.2993V15.764H51.2993ZM51.2993 23.864C51.2993 26.4249 51.3697 28.2499 51.5269 29.2721L53.5037 28.9679C53.3729 28.1181 53.2993 26.4391 53.2993 23.864H51.2993ZM51.531 29.2967C51.6213 29.7995 51.7343 30.2488 51.8799 30.6245C52.0184 30.9817 52.2242 31.3731 52.5591 31.6522L53.8395 30.1158C53.8864 30.1549 53.8342 30.1323 53.7447 29.9015C53.6624 29.6892 53.5773 29.3765 53.4996 28.9433L51.531 29.2967ZM52.5624 31.655C53.38 32.3304 54.5392 32.568 55.8273 32.568V30.568C54.7154 30.568 54.1226 30.3496 53.8362 30.113L52.5624 31.655ZM54.8409 31.7324L54.9129 32.1644L56.8857 31.8356L56.8137 31.4036L54.8409 31.7324ZM55.8993 31H46.2153V33H55.8993V31ZM47.2017 32.1644L47.2737 31.7324L45.3009 31.4036L45.2289 31.8356L47.2017 32.1644ZM46.2873 32.568C46.8829 32.568 47.3927 32.5437 47.7967 32.4859L47.5139 30.5061C47.2459 30.5443 46.8437 30.568 46.2873 30.568V32.568ZM47.7875 32.4872C48.3156 32.4168 48.801 32.2197 49.2273 31.9L48.0273 30.3C47.8776 30.4123 47.715 30.4792 47.5231 30.5048L47.7875 32.4872ZM49.2273 31.9C49.6176 31.6073 49.9454 31.2432 50.1497 30.7938L48.3289 29.9662C48.2932 30.0448 48.213 30.1607 48.0273 30.3L49.2273 31.9ZM50.1337 30.8272C50.3522 30.3902 50.4896 29.7902 50.5885 29.1225L48.6101 28.8295C48.517 29.4578 48.4144 29.7938 48.3449 29.9328L50.1337 30.8272ZM50.5893 29.1174C50.721 28.1952 50.7793 26.4195 50.7793 23.864H48.7793C48.7793 26.4445 48.7176 28.0768 48.6094 28.8346L50.5893 29.1174ZM50.7793 23.864V15.764H48.7793V23.864H50.7793ZM49.7793 14.764H46.4673V16.764H49.7793V14.764ZM47.4673 15.764V14.972H45.4673V15.764H47.4673ZM46.4673 15.972H49.7793V13.972H46.4673V15.972ZM50.7793 14.972C50.7793 11.5058 51.3912 9.29458 52.3876 8.08327L50.843 6.81273C49.3914 8.57742 48.7793 11.3822 48.7793 14.972H50.7793ZM52.3865 8.08456C53.4063 6.8491 54.8959 6.18 57.0153 6.18V4.18C54.4307 4.18 52.3203 5.0229 50.8441 6.81143L52.3865 8.08456ZM57.0153 6.18C58.1707 6.18 59.4199 6.49922 60.7743 7.18748L61.6804 5.40451C60.1067 4.60477 58.5479 4.18 57.0153 4.18V6.18ZM60.786 7.19335C62.103 7.84104 62.4233 8.47446 62.4233 8.996H64.4233C64.4233 7.35754 63.2797 6.19096 61.6686 5.39865L60.786 7.19335ZM62.4233 8.996C62.4233 9.13132 62.3851 9.24337 62.2389 9.37921L63.5998 10.8448C64.1255 10.3566 64.4233 9.72467 64.4233 8.996H62.4233ZM62.2122 9.40489C62.1149 9.50223 61.9751 9.58 61.6953 9.58V11.58C62.4235 11.58 63.0998 11.3458 63.6264 10.8191L62.2122 9.40489ZM61.6953 9.58C61.5412 9.58 61.3606 9.52787 61.1282 9.25186L59.5984 10.5401C60.134 11.1761 60.8415 11.58 61.6953 11.58V9.58ZM61.1442 9.2713C60.8208 8.86706 60.5725 8.43832 60.3946 7.9836L58.5321 8.7124C58.7861 9.36168 59.1378 9.96494 59.5824 10.5207L61.1442 9.2713ZM60.3946 7.9836C60.1192 7.27987 59.6818 6.65609 59.1081 6.111L57.7306 7.561C58.1168 7.92791 58.3754 8.31213 58.5321 8.7124L60.3946 7.9836ZM59.1443 6.14725C58.4889 5.45738 57.6457 5.116 56.6913 5.116V7.116C57.129 7.116 57.4377 7.25462 57.6943 7.52475L59.1443 6.14725ZM56.6913 5.116C54.9454 5.116 53.5151 5.77854 52.571 7.16381C51.6737 8.48034 51.2993 10.3296 51.2993 12.56H53.2993C53.2993 10.4944 53.6569 9.12166 54.2236 8.29019C54.7435 7.52745 55.5093 7.116 56.6913 7.116V5.116ZM51.2993 12.56V14.972H53.2993V12.56H51.2993ZM52.2993 15.972C53.786 15.972 55.8437 15.9112 58.4651 15.7909L58.3735 13.793C55.7629 13.9128 53.7406 13.972 52.2993 13.972V15.972ZM58.4647 15.791C61.1118 15.6706 62.7668 15.612 63.4593 15.612V13.612C62.7118 13.612 61.0068 13.6734 58.3739 13.793L58.4647 15.791ZM62.4593 14.612V26.06H64.4593V14.612H62.4593ZM62.4593 26.06C62.4593 27.3345 62.4955 28.386 62.5716 29.2036C62.6433 29.9748 62.7602 30.6778 62.9969 31.1512L64.7857 30.2568C64.7345 30.1542 64.6353 29.7952 64.563 29.0184C64.4951 28.288 64.4593 27.3055 64.4593 26.06H62.4593ZM63.012 31.1803C63.3293 31.7661 63.8789 32.108 64.4571 32.3007C65.0313 32.4921 65.7206 32.568 66.4833 32.568V30.568C65.8301 30.568 65.3793 30.4999 65.0895 30.4033C64.9489 30.3564 64.8661 30.3093 64.8209 30.2761C64.7791 30.2454 64.7707 30.2279 64.7706 30.2277L63.012 31.1803ZM65.4969 31.7324L65.5689 32.1644L67.5417 31.8356L67.4697 31.4036L65.4969 31.7324ZM66.5553 31H57.7713V33H66.5553V31ZM58.7577 32.1644L58.8297 31.7324L56.8569 31.4036L56.7849 31.8356L58.7577 32.1644ZM57.8433 32.568C58.6168 32.568 59.3138 32.4923 59.8926 32.302C60.4739 32.1109 61.031 31.7703 61.3506 31.1803L59.592 30.2277C59.5918 30.2282 59.59 30.2315 59.5841 30.238C59.578 30.2448 59.5657 30.257 59.5434 30.2733C59.4972 30.3068 59.4123 30.3546 59.268 30.402C58.9709 30.4997 58.5098 30.568 57.8433 30.568V32.568ZM61.3585 31.1654C61.6118 30.6783 61.7392 29.9617 61.8174 29.1738C61.9 28.3414 61.9393 27.2757 61.9393 25.988H59.9393C59.9393 27.2443 59.9006 28.2366 59.8272 28.9762C59.7494 29.7603 59.6428 30.1297 59.5841 30.2426L61.3585 31.1654ZM61.9393 25.988V23.468H59.9393V25.988H61.9393ZM61.9393 23.468C61.9393 20.772 61.8697 18.8995 61.7097 17.9396L59.7369 18.2684C59.8649 19.0365 59.9393 20.74 59.9393 23.468H61.9393ZM61.7104 17.9439C61.6323 17.462 61.528 17.0261 61.3846 16.6596C61.2481 16.3108 61.0356 15.9182 60.6753 15.648L59.4753 17.248C59.403 17.1938 59.4425 17.1852 59.5221 17.3884C59.5947 17.5739 59.6704 17.858 59.7362 18.2641L61.7104 17.9439ZM60.7122 15.677C59.8919 14.9994 58.7176 14.764 57.4113 14.764V16.764C58.5531 16.764 59.1547 16.9846 59.4384 17.219L60.7122 15.677ZM80.4291 28.94L79.597 29.4947L79.6031 29.5036L80.4291 28.94ZM78.7011 26.348L79.5331 25.7933L79.5317 25.7911L78.7011 26.348ZM74.8491 22.928L74.9934 21.9385L73.8491 21.7716V22.928H74.8491ZM75.3171 30.704L74.4299 31.1654L74.4338 31.1729L74.4378 31.1803L75.3171 30.704ZM77.8731 31.568L78.8595 31.4036L78.7202 30.568H77.8731V31.568ZM77.9451 32V33H79.1256L78.9315 31.8356L77.9451 32ZM69.1611 32L68.1747 31.8356L67.9806 33H69.1611V32ZM69.2331 31.568V30.568H68.386L68.2467 31.4036L69.2331 31.568ZM71.8611 30.668L72.7483 31.1294L72.752 31.1223L72.7555 31.1152L71.8611 30.668ZM72.1491 8.096L71.1627 8.2604L71.1636 8.26591L72.1491 8.096ZM71.5731 6.8L72.0519 5.9221L72.0519 5.9221L71.5731 6.8ZM69.2331 6.368L68.2467 6.5324L68.386 7.368H69.2331V6.368ZM69.1611 5.936L69.016 4.94658L68.0071 5.09456L68.1747 6.1004L69.1611 5.936ZM74.8491 5.54H75.8491V4.54H74.8491V5.54ZM74.8491 22.316H73.8491V23.3861L74.9167 23.3137L74.8491 22.316ZM78.8451 20.156L79.5779 20.8365L79.5839 20.83L78.8451 20.156ZM79.3131 15.368L78.3292 15.5469L78.4785 16.368H79.3131V15.368ZM79.2411 14.972V13.972H78.0429L78.2572 15.1509L79.2411 14.972ZM86.9091 14.972L87.893 15.1509L88.1073 13.972H86.9091V14.972ZM86.8371 15.368V16.368H87.6717L87.821 15.5469L86.8371 15.368ZM81.1491 18.824L80.4119 18.1483L80.4119 18.1483L81.1491 18.824ZM79.4211 20.696L80.1369 21.3943L80.1438 21.3872L80.1506 21.3799L79.4211 20.696ZM76.4331 22.568L76.1853 21.5992L76.3009 23.5592L76.4331 22.568ZM79.3851 23.792L79.9885 22.9946L79.9885 22.9946L79.3851 23.792ZM81.6171 26.096L80.7957 26.6664L80.8034 26.6772L81.6171 26.096ZM83.3811 28.616L82.5564 29.1815L82.5605 29.1875L82.5647 29.1935L83.3811 28.616ZM88.0611 31.568L89.0475 31.4036L88.9082 30.568H88.0611V31.568ZM88.1331 32V33H89.3136L89.1195 31.8356L88.1331 32ZM84.5331 31C83.7179 31 82.611 30.3634 81.2551 28.3764L79.6031 29.5036C81.0312 31.5966 82.6603 33 84.5331 33V31ZM81.2611 28.3853C80.6851 27.5213 80.1091 26.6573 79.5331 25.7933L77.869 26.9027C78.445 27.7667 79.021 28.6307 79.597 29.4947L81.2611 28.3853ZM79.5317 25.7911C78.7968 24.695 78.0679 23.8075 77.34 23.1612C76.6175 22.5197 75.8338 22.061 74.9934 21.9385L74.7048 23.9175C75.0164 23.963 75.4507 24.1583 76.0122 24.6568C76.5683 25.1505 77.1894 25.889 77.8705 26.9049L79.5317 25.7911ZM73.8491 22.928V26.06H75.8491V22.928H73.8491ZM73.8491 26.06C73.8491 27.3241 73.8884 28.3723 73.9711 29.1933C74.0496 29.9715 74.1775 30.68 74.4299 31.1654L76.2043 30.2426C76.1447 30.128 76.0386 29.7625 75.9611 28.9927C75.8878 28.2657 75.8491 27.2919 75.8491 26.06H73.8491ZM74.4378 31.1803C74.7528 31.7617 75.2949 32.105 75.8699 32.2993C76.4394 32.4919 77.1211 32.568 77.8731 32.568V30.568C77.2331 30.568 76.7928 30.5001 76.5103 30.4047C76.3734 30.3584 76.2927 30.3119 76.2484 30.279C76.2074 30.2486 76.1978 30.2304 76.1964 30.2277L74.4378 31.1803ZM76.8867 31.7324L76.9587 32.1644L78.9315 31.8356L78.8595 31.4036L76.8867 31.7324ZM77.9451 31H69.1611V33H77.9451V31ZM70.1475 32.1644L70.2195 31.7324L68.2467 31.4036L68.1747 31.8356L70.1475 32.1644ZM69.2331 32.568C70.0092 32.568 70.7106 32.4889 71.2941 32.2891C71.884 32.087 72.4358 31.7304 72.7483 31.1294L70.9739 30.2066C70.971 30.2122 70.96 30.2325 70.9175 30.2647C70.8714 30.2995 70.7879 30.3484 70.6461 30.3969C70.3536 30.4971 69.897 30.568 69.2331 30.568V32.568ZM72.7555 31.1152C73.0032 30.6198 73.1296 29.8836 73.2076 29.0615C73.2898 28.195 73.3291 27.083 73.3291 25.736H71.3291C71.3291 27.053 71.2903 28.095 71.2166 28.8725C71.1386 29.6944 71.031 30.0922 70.9667 30.2208L72.7555 31.1152ZM73.3291 25.736V11.948H71.3291V25.736H73.3291ZM73.3291 11.948C73.3291 10.0825 73.271 8.71767 73.1346 7.92609L71.1636 8.26591C71.2672 8.86632 71.3291 10.0695 71.3291 11.948H73.3291ZM73.1355 7.9316C73.0683 7.52819 72.9725 7.14888 72.8289 6.82586C72.6914 6.51648 72.4594 6.14433 72.0519 5.9221L71.0942 7.67789C70.9508 7.59967 70.9468 7.51552 71.0013 7.63814C71.0497 7.74712 71.1099 7.94381 71.1627 8.2604L73.1355 7.9316ZM72.0519 5.9221C71.3067 5.51561 70.328 5.368 69.2331 5.368V7.368C70.2022 7.368 70.7835 7.50839 71.0942 7.67789L72.0519 5.9221ZM70.2195 6.2036L70.1475 5.7716L68.1747 6.1004L68.2467 6.5324L70.2195 6.2036ZM69.3062 6.92541C71.0539 6.66909 72.9011 6.54 74.8491 6.54V4.54C72.813 4.54 70.8683 4.67491 69.016 4.94658L69.3062 6.92541ZM73.8491 5.54V22.316H75.8491V5.54H73.8491ZM74.9167 23.3137C76.6544 23.1959 78.209 22.3106 79.5779 20.8364L78.1123 19.4755C76.9851 20.6894 75.8758 21.2441 74.7815 21.3183L74.9167 23.3137ZM79.5839 20.83C80.8893 19.399 81.7171 17.9395 81.7171 16.484H79.7171C79.7171 17.1885 79.2969 18.177 78.1063 19.482L79.5839 20.83ZM81.7171 16.484C81.7171 15.9238 81.568 15.2669 81.007 14.8306L79.7792 16.4094C79.7545 16.3902 79.7344 16.3684 79.7197 16.3477C79.7054 16.3276 79.7001 16.3141 79.6998 16.3131C79.6996 16.3127 79.7042 16.3249 79.7087 16.3538C79.7132 16.3829 79.7171 16.4255 79.7171 16.484H81.7171ZM81.007 14.8306C80.5196 14.4515 79.8759 14.368 79.3131 14.368V16.368C79.5142 16.368 79.6497 16.3852 79.7339 16.4048C79.8199 16.4249 79.8178 16.4394 79.7792 16.4094L81.007 14.8306ZM80.297 15.1891L80.225 14.7931L78.2572 15.1509L78.3292 15.5469L80.297 15.1891ZM79.2411 15.972H86.9091V13.972H79.2411V15.972ZM85.9252 14.7931L85.8532 15.1891L87.821 15.5469L87.893 15.1509L85.9252 14.7931ZM86.8371 14.368C85.1501 14.368 83.6967 14.7541 82.71 15.7409L84.1242 17.1551C84.5775 16.7019 85.404 16.368 86.8371 16.368V14.368ZM82.71 15.7409C81.9784 16.4725 81.2123 17.2752 80.4119 18.1483L81.8862 19.4997C82.6699 18.6448 83.4158 17.8635 84.1242 17.1551L82.71 15.7409ZM80.4119 18.1483C79.6202 19.012 79.0474 19.6325 78.6916 20.0121L80.1506 21.3799C80.5148 20.9915 81.094 20.364 81.8862 19.4997L80.4119 18.1483ZM78.7053 19.9977C77.8369 20.8878 76.9947 21.3921 76.1853 21.5992L76.6809 23.5368C77.9355 23.2159 79.0853 22.4722 80.1369 21.3943L78.7053 19.9977ZM76.3009 23.5592C77.2058 23.6799 78.0282 24.0192 78.7817 24.5894L79.9885 22.9946C78.966 22.2208 77.8204 21.7441 76.5653 21.5768L76.3009 23.5592ZM78.7817 24.5894C79.5904 25.2015 80.2594 25.8941 80.7957 26.6664L82.4385 25.5256C81.7748 24.5699 80.9557 23.7265 79.9885 22.9946L78.7817 24.5894ZM80.8034 26.6772C81.3997 27.5121 81.984 28.3469 82.5564 29.1815L84.2058 28.0505C83.6262 27.2051 83.0345 26.3599 82.4308 25.5148L80.8034 26.6772ZM82.5647 29.1935C84.0643 31.3136 85.8913 32.568 88.0611 32.568V30.568C86.7749 30.568 85.4819 29.8544 84.1975 28.0385L82.5647 29.1935ZM87.0747 31.7324L87.1467 32.1644L89.1195 31.8356L89.0475 31.4036L87.0747 31.7324ZM88.1331 31H84.5331V33H88.1331V31ZM102.784 29.264L101.803 29.4601L101.804 29.4657L102.784 29.264ZM105.628 29.984L106.522 29.5368L106.075 28.6424L105.18 29.0896L105.628 29.984ZM105.808 30.344L106.408 31.144L107.075 30.6433L106.702 29.8968L105.808 30.344ZM105.052 30.884L105.576 31.7357L105.599 31.7215L105.621 31.7062L105.052 30.884ZM103.144 31.676L103.474 32.6199L103.144 31.676ZM100.372 32.18L99.3989 32.4116L99.5818 33.18H100.372V32.18ZM100.012 27.356H101.012L99.0693 27.0216L100.012 27.356ZM97.9237 30.992L97.1889 30.3137L97.1881 30.3145L97.9237 30.992ZM90.7957 31.172L90.1091 31.899L90.1194 31.9088L90.1301 31.9183L90.7957 31.172ZM100.012 22.028L100.015 23.028L101.012 23.0246V22.028H100.012ZM99.2557 16.772L98.3804 17.2557L98.3804 17.2557L99.2557 16.772ZM94.5757 15.98L95.2004 16.7609L95.2004 16.7609L94.5757 15.98ZM93.6037 17.24L92.6653 16.8943L92.6589 16.9117L92.6532 16.9293L93.6037 17.24ZM92.3797 15.512L91.9325 14.6176L91.9325 14.6176L92.3797 15.512ZM100.912 16.088L100.238 16.8273L100.247 16.8354L100.912 16.088ZM92.9197 30.344L92.1123 30.934L92.1178 30.9416L92.1235 30.9491L92.9197 30.344ZM97.8157 29.804L98.5777 30.4517L98.5854 30.4423L97.8157 29.804ZM99.4717 26.564L98.5039 26.3124L98.5021 26.3192L98.5004 26.3261L99.4717 26.564ZM100.012 22.856L101.011 22.8937L101.05 21.8466L100.003 21.856L100.012 22.856ZM94.1077 24.332L93.5053 23.5338L93.498 23.5394L94.1077 24.332ZM101.532 20.372V24.008H103.532V20.372H101.532ZM101.532 24.008C101.532 26.6524 101.612 28.506 101.803 29.4601L103.764 29.0679C103.619 28.342 103.532 26.6916 103.532 24.008H101.532ZM101.804 29.4657C101.911 29.9843 102.118 30.4982 102.509 30.8891C102.924 31.3044 103.454 31.488 104.008 31.488V29.488C103.951 29.488 103.929 29.4793 103.927 29.4787C103.926 29.4782 103.926 29.4783 103.927 29.4789C103.928 29.4795 103.927 29.4788 103.923 29.4749C103.906 29.4578 103.824 29.3597 103.763 29.0623L101.804 29.4657ZM104.008 31.488C104.652 31.488 105.362 31.2348 106.075 30.8784L105.18 29.0896C104.549 29.4052 104.179 29.488 104.008 29.488V31.488ZM104.733 30.4312L104.913 30.7912L106.702 29.8968L106.522 29.5368L104.733 30.4312ZM105.208 29.544C105.03 29.6774 104.789 29.8494 104.482 30.0618L105.621 31.7062C105.938 31.4866 106.202 31.2986 106.408 31.144L105.208 29.544ZM104.528 30.0323C104.321 30.1595 103.785 30.3921 102.813 30.7321L103.474 32.6199C104.422 32.2879 105.158 31.9925 105.576 31.7357L104.528 30.0323ZM102.813 30.7321C101.944 31.0363 101.132 31.18 100.372 31.18V33.18C101.387 33.18 102.423 32.9877 103.474 32.6199L102.813 30.7321ZM101.344 31.9484C101.133 31.0616 101.012 29.5531 101.012 27.356H99.0117C99.0117 29.5749 99.13 31.2824 99.3989 32.4116L101.344 31.9484ZM99.0693 27.0216C98.576 28.4117 97.942 29.4979 97.1889 30.3137L98.6585 31.6703C99.6334 30.6141 100.391 29.2763 100.954 27.6904L99.0693 27.0216ZM97.1881 30.3145C96.5781 30.9769 95.6944 31.36 94.3957 31.36V33.36C96.121 33.36 97.5893 32.8311 98.6592 31.6695L97.1881 30.3145ZM94.3957 31.36C93.0605 31.36 92.1206 31.0138 91.4613 30.4257L90.1301 31.9183C91.2467 32.9142 92.7068 33.36 94.3957 33.36V31.36ZM91.4823 30.445C90.8528 29.8504 90.4997 29.0282 90.4997 27.86H88.4997C88.4997 29.4758 89.0106 30.8616 90.1091 31.899L91.4823 30.445ZM90.4997 27.86C90.4997 27.0502 90.6815 26.3879 91.0129 25.8386C91.3455 25.2874 91.8618 24.7951 92.6128 24.3784C94.1448 23.5285 96.5705 23.0398 100.015 23.028L100.008 21.028C96.4449 21.0402 93.6146 21.5355 91.6425 22.6296C90.6416 23.1849 89.8439 23.9046 89.3004 24.8054C88.7559 25.7081 88.4997 26.7378 88.4997 27.86H90.4997ZM101.012 22.028V20.732H99.0117V22.028H101.012ZM101.012 20.732C101.012 18.9335 100.754 17.4157 100.131 16.2883L98.3804 17.2557C98.7654 17.9523 99.0117 19.0745 99.0117 20.732H101.012ZM100.131 16.2883C99.3953 14.9573 98.0482 14.404 96.4477 14.404V16.404C97.5832 16.404 98.108 16.7627 98.3804 17.2557L100.131 16.2883ZM96.4477 14.404C95.5106 14.404 94.6488 14.6409 93.951 15.1991L95.2004 16.7609C95.4626 16.5511 95.8488 16.404 96.4477 16.404V14.404ZM93.951 15.1991C93.366 15.6671 92.911 16.2276 92.6653 16.8943L94.542 17.5857C94.6324 17.3404 94.8254 17.0609 95.2004 16.7609L93.951 15.1991ZM92.6532 16.9293C92.2843 18.0577 91.9081 18.112 91.7677 18.112V20.112C93.2593 20.112 94.1071 18.9183 94.5542 17.5507L92.6532 16.9293ZM91.7677 18.112C91.6606 18.112 91.6106 18.0967 91.598 18.092C91.5913 18.0895 91.6068 18.0952 91.623 18.1134C91.6527 18.1467 91.5797 18.0963 91.5797 17.78H89.5797C89.5797 18.3517 89.7047 18.9673 90.1304 19.4446C90.5755 19.9437 91.186 20.112 91.7677 20.112V18.112ZM91.5797 17.78C91.5797 17.4128 91.7861 16.9268 92.8269 16.4064L91.9325 14.6176C90.5733 15.2971 89.5797 16.3232 89.5797 17.78H91.5797ZM92.8269 16.4064C93.8557 15.892 95.1462 15.612 96.7357 15.612V13.612C94.9172 13.612 93.3037 13.932 91.9325 14.6176L92.8269 16.4064ZM96.7357 15.612C98.2347 15.612 99.3726 16.0385 100.238 16.8272L101.585 15.3488C100.291 14.1695 98.6447 13.612 96.7357 13.612V15.612ZM100.247 16.8354C101.052 17.5508 101.532 18.6672 101.532 20.372H103.532C103.532 18.2848 102.931 16.5452 101.576 15.3406L100.247 16.8354ZM91.2357 28.004C91.2357 29.1063 91.5066 30.1052 92.1123 30.934L93.7271 29.754C93.4208 29.3348 93.2357 28.7737 93.2357 28.004H91.2357ZM92.1235 30.9491C92.8238 31.8705 93.8873 32.244 95.0797 32.244V30.244C94.3041 30.244 93.9276 30.0175 93.7158 29.7389L92.1235 30.9491ZM95.0797 32.244C96.4522 32.244 97.6231 31.5746 98.5776 30.4516L97.0537 29.1564C96.3762 29.9534 95.7231 30.244 95.0797 30.244V32.244ZM98.5854 30.4423C99.4925 29.3485 100.117 28.1331 100.443 26.8019L98.5004 26.3261C98.2504 27.3469 97.7708 28.2915 97.0459 29.1657L98.5854 30.4423ZM100.44 26.8156C100.77 25.5438 100.96 24.236 101.011 22.8937L99.0124 22.8183C98.967 24.02 98.7972 25.1842 98.5039 26.3124L100.44 26.8156ZM100.003 21.856C97.255 21.8808 95.0294 22.3835 93.5053 23.5338L94.7101 25.1302C95.73 24.3605 97.4403 23.8792 100.021 23.856L100.003 21.856ZM93.498 23.5394C92.0205 24.6759 91.2357 26.1852 91.2357 28.004H93.2357C93.2357 26.8468 93.6989 25.9081 94.7174 25.1246L93.498 23.5394ZM113.685 14.972H112.685V15.972H113.685V14.972ZM118.113 14.972H119.113V13.972H118.113V14.972ZM118.113 15.764V16.764H119.113V15.764H118.113ZM113.685 15.764V14.764H112.685V15.764H113.685ZM114.045 30.704L113.253 31.3137L113.265 31.3292L113.277 31.3442L114.045 30.704ZM118.041 30.38L119.025 30.2011L118.801 28.9666L117.647 29.4609L118.041 30.38ZM118.113 30.776L118.645 31.6226L119.218 31.2627L119.097 30.5971L118.113 30.776ZM111.777 31.748L112.484 31.0409L112.484 31.0409L111.777 31.748ZM111.165 15.764H112.165V14.764H111.165V15.764ZM109.005 15.764H108.005V16.764H109.005V15.764ZM109.005 14.972V13.972H108.005V14.972H109.005ZM111.705 13.892L110.89 13.3132L110.886 13.3185L111.705 13.892ZM112.893 10.616L112.803 9.62011L112.047 9.68885L111.91 10.4357L112.893 10.616ZM113.685 10.544H114.685V9.44897L113.595 9.54811L113.685 10.544ZM113.685 15.972H118.113V13.972H113.685V15.972ZM117.113 14.972V15.764H119.113V14.972H117.113ZM118.113 14.764H113.685V16.764H118.113V14.764ZM112.685 15.764V29.48H114.685V15.764H112.685ZM112.685 29.48C112.685 30.1421 112.844 30.7831 113.253 31.3137L114.838 30.0943C114.766 30.0009 114.685 29.8259 114.685 29.48H112.685ZM113.277 31.3442C113.712 31.8665 114.309 32.136 114.981 32.136V30.136C114.917 30.136 114.888 30.1246 114.878 30.12C114.869 30.1158 114.847 30.1043 114.813 30.0638L113.277 31.3442ZM114.981 32.136C116.03 32.136 117.189 31.8331 118.435 31.2991L117.647 29.4609C116.541 29.9349 115.661 30.136 114.981 30.136V32.136ZM117.057 30.5589L117.129 30.9549L119.097 30.5971L119.025 30.2011L117.057 30.5589ZM117.581 29.9294C115.982 30.9344 114.682 31.36 113.649 31.36V33.36C115.208 33.36 116.884 32.7296 118.645 31.6226L117.581 29.9294ZM113.649 31.36C112.954 31.36 112.634 31.1904 112.484 31.0409L111.07 32.4551C111.737 33.1216 112.665 33.36 113.649 33.36V31.36ZM112.484 31.0409C112.363 30.9192 112.165 30.5502 112.165 29.624H110.165C110.165 30.7138 110.376 31.7608 111.07 32.4551L112.484 31.0409ZM112.165 29.624V15.764H110.165V29.624H112.165ZM111.165 14.764H109.005V16.764H111.165V14.764ZM110.005 15.764V14.972H108.005V15.764H110.005ZM109.005 15.972C110.464 15.972 111.756 15.5634 112.524 14.4655L110.886 13.3185C110.647 13.6605 110.139 13.972 109.005 13.972V15.972ZM112.521 14.4707C113.169 13.5572 113.601 12.3028 113.877 10.7963L111.91 10.4357C111.658 11.8092 111.297 12.7388 110.89 13.3133L112.521 14.4707ZM112.984 11.6119L113.776 11.5399L113.595 9.54811L112.803 9.62011L112.984 11.6119ZM112.685 10.544V14.972H114.685V10.544H112.685ZM123.903 10.292L124.61 9.58489L124.61 9.58489L123.903 10.292ZM126.783 10.292L126.076 9.58489L126.076 9.58489L126.783 10.292ZM126.711 14.612H127.711V13.612H126.711V14.612ZM127.143 30.704L126.249 31.1512L126.256 31.1659L126.264 31.1803L127.143 30.704ZM129.735 31.568L130.722 31.4036L130.582 30.568H129.735V31.568ZM129.807 32V33H130.988L130.794 31.8356L129.807 32ZM121.023 32L120.037 31.8356L119.843 33H121.023V32ZM121.095 31.568V30.568H120.248L120.109 31.4036L121.095 31.568ZM123.723 30.704L124.603 31.1803L124.607 31.1729L124.611 31.1654L123.723 30.704ZM123.939 17.96L122.952 18.116L122.954 18.131L122.957 18.1459L123.939 17.96ZM123.291 16.196L122.616 16.9332L122.616 16.9332L123.291 16.196ZM120.627 15.404L119.643 15.5829L119.793 16.404H120.627V15.404ZM120.555 15.008L120.43 14.0159L119.383 14.1483L119.571 15.1869L120.555 15.008ZM124.61 9.58489C124.38 9.35497 124.291 9.12569 124.291 8.852H122.291C122.291 9.68231 122.61 10.413 123.196 10.9991L124.61 9.58489ZM124.291 8.852C124.291 8.57831 124.38 8.34903 124.61 8.11911L123.196 6.70489C122.61 7.29097 122.291 8.02169 122.291 8.852H124.291ZM124.61 8.11911C124.84 7.88918 125.07 7.8 125.343 7.8V5.8C124.513 5.8 123.782 6.11882 123.196 6.70489L124.61 8.11911ZM125.343 7.8C125.617 7.8 125.846 7.88918 126.076 8.11911L127.49 6.70489C126.904 6.11882 126.174 5.8 125.343 5.8V7.8ZM126.076 8.11911C126.306 8.34903 126.395 8.57831 126.395 8.852H128.395C128.395 8.02169 128.076 7.29097 127.49 6.70489L126.076 8.11911ZM126.395 8.852C126.395 9.12569 126.306 9.35497 126.076 9.58489L127.49 10.9991C128.076 10.413 128.395 9.68231 128.395 8.852H126.395ZM126.076 9.58489C125.846 9.81482 125.617 9.904 125.343 9.904V11.904C126.174 11.904 126.904 11.5852 127.49 10.9991L126.076 9.58489ZM125.343 9.904C125.07 9.904 124.84 9.81482 124.61 9.58489L123.196 10.9991C123.782 11.5852 124.513 11.904 125.343 11.904V9.904ZM125.711 14.612V26.06H127.711V14.612H125.711ZM125.711 26.06C125.711 27.3345 125.748 28.386 125.824 29.2036C125.895 29.9748 126.012 30.6778 126.249 31.1512L128.038 30.2568C127.986 30.1542 127.887 29.7952 127.815 29.0184C127.747 28.288 127.711 27.3055 127.711 26.06H125.711ZM126.264 31.1803C126.581 31.7661 127.131 32.108 127.709 32.3007C128.283 32.4921 128.973 32.568 129.735 32.568V30.568C129.082 30.568 128.631 30.4999 128.342 30.4033C128.201 30.3564 128.118 30.3093 128.073 30.2761C128.031 30.2454 128.023 30.2279 128.023 30.2277L126.264 31.1803ZM128.749 31.7324L128.821 32.1644L130.794 31.8356L130.722 31.4036L128.749 31.7324ZM129.807 31H121.023V33H129.807V31ZM122.01 32.1644L122.082 31.7324L120.109 31.4036L120.037 31.8356L122.01 32.1644ZM121.095 32.568C121.869 32.568 122.566 32.4923 123.145 32.302C123.726 32.1109 124.283 31.7703 124.603 31.1803L122.844 30.2277C122.844 30.2282 122.842 30.2315 122.836 30.238C122.83 30.2448 122.818 30.257 122.795 30.2733C122.749 30.3068 122.664 30.3546 122.52 30.402C122.223 30.4997 121.762 30.568 121.095 30.568V32.568ZM124.611 31.1654C124.864 30.6783 124.991 29.9617 125.069 29.1738C125.152 28.3414 125.191 27.2757 125.191 25.988H123.191C123.191 27.2443 123.153 28.2366 123.079 28.9762C123.001 29.7603 122.895 30.1297 122.836 30.2426L124.611 31.1654ZM125.191 25.988V23.468H123.191V25.988H125.191ZM125.191 23.468C125.191 20.7019 125.11 18.7702 124.922 17.7741L122.957 18.1459C123.104 18.9258 123.191 20.6661 123.191 23.468H125.191ZM124.927 17.804C124.849 17.3109 124.746 16.8667 124.608 16.4902C124.475 16.1271 124.279 15.7449 123.967 15.4588L122.616 16.9332C122.592 16.9111 122.648 16.9549 122.731 17.1798C122.808 17.3913 122.885 17.6971 122.952 18.116L124.927 17.804ZM123.967 15.4588C123.129 14.691 121.948 14.404 120.627 14.404V16.404C121.707 16.404 122.301 16.645 122.616 16.9332L123.967 15.4588ZM121.611 15.2251L121.539 14.8291L119.571 15.1869L119.643 15.5829L121.611 15.2251ZM120.681 16.0001C122.729 15.7411 124.739 15.612 126.711 15.612V13.612C124.652 13.612 122.558 13.7469 120.43 14.0159L120.681 16.0001ZM135.131 17.168L134.367 16.5225L134.367 16.5225L135.131 17.168ZM146.975 17.168L147.723 16.5043L147.723 16.5043L146.975 17.168ZM147.047 29.84L146.289 29.1883L146.288 29.1892L147.047 29.84ZM135.203 29.804L134.45 30.4618L134.455 30.4677L135.203 29.804ZM137.111 29.336L136.257 29.8564L136.263 29.866L137.111 29.336ZM145.139 29.372L144.283 28.8555L144.277 28.8656L145.139 29.372ZM137.039 17.636L136.179 17.1255L136.177 17.1296L137.039 17.636ZM133.971 23.504C133.971 21.1877 134.627 19.3136 135.895 17.8135L134.367 16.5225C132.755 18.4304 131.971 20.7803 131.971 23.504H133.971ZM135.895 17.8135C137.123 16.3603 138.786 15.612 140.999 15.612V13.612C138.269 13.612 136.019 14.5677 134.367 16.5225L135.895 17.8135ZM140.999 15.612C143.213 15.612 144.922 16.3612 146.227 17.8317L147.723 16.5043C146.004 14.5668 143.73 13.612 140.999 13.612V15.612ZM146.227 17.8317C147.559 19.3328 148.243 21.2006 148.243 23.504H150.243C150.243 20.7674 149.415 18.4112 147.723 16.5043L146.227 17.8317ZM148.243 23.504C148.243 25.816 147.578 27.688 146.289 29.1883L147.806 30.4917C149.445 28.584 150.243 26.232 150.243 23.504H148.243ZM146.288 29.1892C145.061 30.62 143.398 31.36 141.179 31.36V33.36C143.905 33.36 146.153 32.42 147.806 30.4908L146.288 29.1892ZM141.179 31.36C138.966 31.36 137.256 30.6108 135.951 29.1403L134.455 30.4677C136.174 32.4052 138.449 33.36 141.179 33.36V31.36ZM135.956 29.1462C134.644 27.6437 133.971 25.785 133.971 23.504H131.971C131.971 26.215 132.786 28.5563 134.45 30.4618L135.956 29.1462ZM136.263 29.866C137.398 31.6824 139.068 32.64 141.179 32.64V30.64C139.786 30.64 138.744 30.0616 137.959 28.806L136.263 29.866ZM141.179 32.64C143.286 32.64 144.934 31.6959 146.001 29.8784L144.277 28.8656C143.568 30.0721 142.576 30.64 141.179 30.64V32.64ZM145.995 29.8885C147.029 28.1756 147.507 26.0372 147.507 23.54H145.507C145.507 25.7948 145.074 27.5444 144.283 28.8555L145.995 29.8885ZM147.507 23.54C147.507 21.012 147.002 18.8448 145.915 17.106L144.219 18.166C145.052 19.4992 145.507 21.268 145.507 23.54H147.507ZM145.915 17.106C144.78 15.2896 143.11 14.332 140.999 14.332V16.332C142.392 16.332 143.434 16.9104 144.219 18.166L145.915 17.106ZM140.999 14.332C138.904 14.332 137.264 15.2986 136.179 17.1255L137.899 18.1465C138.638 16.9014 139.638 16.332 140.999 16.332V14.332ZM136.177 17.1296C135.172 18.8402 134.707 20.9748 134.707 23.468H136.707C136.707 21.2092 137.13 19.4558 137.901 18.1424L136.177 17.1296ZM134.707 23.468C134.707 25.9702 135.2 28.1209 136.257 29.8564L137.965 28.8156C137.151 27.4791 136.707 25.7178 136.707 23.468H134.707ZM158.557 14.612H159.557V13.612H158.557V14.612ZM158.557 21.056H157.557L159.55 21.18L158.557 21.056ZM160.357 16.556L161.148 17.1679L161.154 17.1607L160.357 16.556ZM170.257 30.704L169.37 31.1654L169.381 31.1869L169.393 31.2079L170.257 30.704ZM172.849 31.568L173.836 31.4036L173.696 30.568H172.849V31.568ZM172.921 32V33H174.102L173.908 31.8356L172.921 32ZM164.173 32L163.187 31.8356L162.993 33H164.173V32ZM164.245 31.568V30.568H163.398L163.259 31.4036L164.245 31.568ZM166.837 30.668L167.739 31.1007L167.739 31.1007L166.837 30.668ZM166.477 16.988L165.62 17.5025L165.625 17.5114L165.631 17.5202L166.477 16.988ZM161.257 16.88L161.964 17.5871L161.97 17.5815L161.975 17.5758L161.257 16.88ZM159.601 19.724L158.647 19.4257L158.647 19.4263L159.601 19.724ZM158.989 30.704L158.095 31.1512L158.102 31.1659L158.11 31.1803L158.989 30.704ZM161.581 31.568L162.568 31.4036L162.428 30.568H161.581V31.568ZM161.653 32V33H162.834L162.64 31.8356L161.653 32ZM152.869 32L151.883 31.8356L151.689 33H152.869V32ZM152.941 31.568V30.568H152.094L151.955 31.4036L152.941 31.568ZM155.569 30.704L156.449 31.1803L156.453 31.1729L156.456 31.1654L155.569 30.704ZM155.497 16.592L154.587 17.0058L154.592 17.0167L154.597 17.0276L155.497 16.592ZM154.849 15.872L154.249 16.672L154.264 16.6834L154.28 16.6942L154.849 15.872ZM153.877 15.476L153.736 16.466L153.745 16.4672L153.877 15.476ZM152.473 15.404L151.489 15.5829L151.639 16.404H152.473V15.404ZM152.401 15.008L152.276 14.0159L151.229 14.1483L151.417 15.1869L152.401 15.008ZM157.557 14.612V21.056H159.557V14.612H157.557ZM159.55 21.18C159.745 19.6145 160.283 18.2866 161.148 17.1679L159.566 15.9441C158.464 17.3694 157.801 19.0415 157.565 20.932L159.55 21.18ZM161.154 17.1607C161.948 16.1146 162.961 15.612 164.281 15.612V13.612C162.338 13.612 160.735 14.4054 159.561 15.9513L161.154 17.1607ZM164.281 15.612C165.951 15.612 167.023 16.0464 167.69 16.7431C168.364 17.4482 168.789 18.5952 168.789 20.372H170.789C170.789 18.3088 170.297 16.5758 169.135 15.3609C167.965 14.1376 166.283 13.612 164.281 13.612V15.612ZM168.789 20.372V26.06H170.789V20.372H168.789ZM168.789 26.06C168.789 27.3241 168.829 28.3723 168.911 29.1933C168.99 29.9715 169.118 30.68 169.37 31.1654L171.144 30.2426C171.085 30.128 170.979 29.7625 170.901 28.9927C170.828 28.2657 170.789 27.2919 170.789 26.06H168.789ZM169.393 31.2079C169.722 31.7718 170.263 32.1081 170.841 32.3007C171.414 32.4916 172.096 32.568 172.849 32.568V30.568C172.21 30.568 171.765 30.5004 171.473 30.4033C171.187 30.3079 171.128 30.2122 171.121 30.2001L169.393 31.2079ZM171.863 31.7324L171.935 32.1644L173.908 31.8356L173.836 31.4036L171.863 31.7324ZM172.921 31H164.173V33H172.921V31ZM165.16 32.1644L165.232 31.7324L163.259 31.4036L163.187 31.8356L165.16 32.1644ZM164.245 32.568C165.02 32.568 165.721 32.4891 166.301 32.2877C166.889 32.0837 167.442 31.7195 167.739 31.1007L165.936 30.2353C165.935 30.2362 165.934 30.2387 165.93 30.2435C165.926 30.2487 165.916 30.2591 165.898 30.2737C165.859 30.304 165.782 30.3507 165.645 30.3983C165.361 30.4969 164.91 30.568 164.245 30.568V32.568ZM167.739 31.1007C167.971 30.6179 168.086 29.8879 168.157 29.0723C168.233 28.209 168.269 27.0935 168.269 25.736H166.269C166.269 27.0665 166.233 28.117 166.165 28.8977C166.092 29.7261 165.992 30.1181 165.936 30.2353L167.739 31.1007ZM168.269 25.736V20.732H166.269V25.736H168.269ZM168.269 20.732C168.269 19.0002 167.999 17.5293 167.324 16.4558L165.631 17.5202C166.012 18.1267 166.269 19.1518 166.269 20.732H168.269ZM167.335 16.4735C166.62 15.2818 165.445 14.728 164.029 14.728V16.728C164.869 16.728 165.327 17.0142 165.62 17.5025L167.335 16.4735ZM164.029 14.728C162.664 14.728 161.478 15.2148 160.539 16.1842L161.975 17.5758C162.524 17.0092 163.186 16.728 164.029 16.728V14.728ZM160.55 16.1729C159.676 17.047 159.048 18.1423 158.647 19.4257L160.556 20.0223C160.875 19.0017 161.35 18.201 161.964 17.5871L160.55 16.1729ZM158.647 19.4263C157.922 21.7512 157.557 24.0954 157.557 26.456H159.557C159.557 24.3046 159.889 22.1608 160.556 20.0217L158.647 19.4263ZM157.557 26.456C157.557 27.6007 157.594 28.556 157.67 29.3112C157.743 30.0293 157.863 30.6871 158.095 31.1512L159.884 30.2568C159.828 30.1449 159.731 29.8067 159.66 29.1088C159.593 28.448 159.557 27.5673 159.557 26.456H157.557ZM158.11 31.1803C158.427 31.7661 158.977 32.108 159.555 32.3007C160.129 32.4921 160.818 32.568 161.581 32.568V30.568C160.928 30.568 160.477 30.4999 160.187 30.4033C160.047 30.3564 159.964 30.3093 159.919 30.2761C159.877 30.2454 159.869 30.2279 159.869 30.2277L158.11 31.1803ZM160.595 31.7324L160.667 32.1644L162.64 31.8356L162.568 31.4036L160.595 31.7324ZM161.653 31H152.869V33H161.653V31ZM153.856 32.1644L153.928 31.7324L151.955 31.4036L151.883 31.8356L153.856 32.1644ZM152.941 32.568C153.715 32.568 154.412 32.4923 154.991 32.302C155.572 32.1109 156.129 31.7703 156.449 31.1803L154.69 30.2277C154.69 30.2282 154.688 30.2315 154.682 30.238C154.676 30.2448 154.664 30.257 154.641 30.2733C154.595 30.3068 154.51 30.3546 154.366 30.402C154.069 30.4997 153.608 30.568 152.941 30.568V32.568ZM156.456 31.1654C156.71 30.6783 156.837 29.9617 156.915 29.1738C156.998 28.3414 157.037 27.2757 157.037 25.988H155.037C155.037 27.2443 154.999 28.2366 154.925 28.9762C154.847 29.7603 154.741 30.1297 154.682 30.2426L156.456 31.1654ZM157.037 25.988V23.108H155.037V25.988H157.037ZM157.037 23.108C157.037 21.2957 156.992 19.8217 156.899 18.6964C156.81 17.626 156.669 16.7182 156.397 16.1564L154.597 17.0276C154.685 17.2098 154.814 17.76 154.906 18.8616C154.992 19.9083 155.037 21.3203 155.037 23.108H157.037ZM156.408 16.1782C156.193 15.7064 155.834 15.3377 155.418 15.0498L154.28 16.6942C154.488 16.8383 154.561 16.9496 154.587 17.0058L156.408 16.1782ZM155.449 15.072C155.023 14.7523 154.538 14.5552 154.009 14.4848L153.745 16.4672C153.937 16.4928 154.1 16.5597 154.249 16.672L155.449 15.072ZM154.019 14.486C153.613 14.4281 153.091 14.404 152.473 14.404V16.404C153.056 16.404 153.469 16.4278 153.736 16.4659L154.019 14.486ZM153.457 15.2251L153.385 14.8291L151.417 15.1869L151.489 15.5829L153.457 15.2251ZM152.527 16.0001C154.575 15.7411 156.585 15.612 158.557 15.612V13.612C156.498 13.612 154.404 13.7469 152.276 14.0159L152.527 16.0001Z" fill="#FAAD13" fill-opacity="0.5"/>
<path d="M2 21.812V20.812H1V21.812H2ZM174.001 21.812H175.001V20.812H174.001V21.812ZM174.001 21.956V22.956H175.001V21.956H174.001ZM2 21.956H1V22.956H2V21.956ZM2 22.812H174.001V20.812H2V22.812ZM173.001 21.812V21.956H175.001V21.812H173.001ZM174.001 20.956H2V22.956H174.001V20.956ZM3 21.956V21.812H1V21.956H3Z" fill="#FAAD13" fill-opacity="0.5"/>
<path d="M7.236 14.612V21.056C7.452 19.328 8.052 17.828 9.036 16.556C10.02 15.26 11.328 14.612 12.96 14.612C16.632 14.612 18.468 16.532 18.468 20.372V26.06C18.468 28.556 18.624 30.104 18.936 30.704C19.272 31.28 20.136 31.568 21.528 31.568L21.6 32H12.852L12.924 31.568C14.364 31.568 15.228 31.268 15.516 30.668C15.804 30.068 15.948 28.424 15.948 25.736V20.732C15.948 19.076 15.684 17.828 15.156 16.988C14.652 16.148 13.836 15.728 12.708 15.728C11.604 15.728 10.68 16.112 9.936 16.88C9.192 17.624 8.64 18.572 8.28 19.724C7.584 21.956 7.236 24.2 7.236 26.456C7.236 28.712 7.38 30.128 7.668 30.704C7.98 31.28 8.844 31.568 10.26 31.568L10.332 32H1.548L1.62 31.568C3.06 31.568 3.936 31.28 4.248 30.704C4.56 30.104 4.716 28.532 4.716 25.988V23.108C4.716 19.508 4.536 17.336 4.176 16.592C4.056 16.328 3.84 16.088 3.528 15.872C3.24 15.656 2.916 15.524 2.556 15.476C2.22 15.428 1.752 15.404 1.152 15.404L1.08 15.008C3.168 14.744 5.22 14.612 7.236 14.612ZM38.1378 20.372V24.008C38.1378 26.672 38.2218 28.424 38.3898 29.264C38.5578 30.08 38.9658 30.488 39.6138 30.488C40.0218 30.488 40.5618 30.32 41.2338 29.984L41.4138 30.344C41.2218 30.488 40.9698 30.668 40.6578 30.884C40.3458 31.076 39.7098 31.34 38.7498 31.676C37.7898 32.012 36.8658 32.18 35.9778 32.18C35.7378 31.172 35.6178 29.564 35.6178 27.356C35.0898 28.844 34.3938 30.056 33.5298 30.992C32.6898 31.904 31.5138 32.36 30.0018 32.36C28.4898 32.36 27.2898 31.964 26.4018 31.172C25.5378 30.356 25.1058 29.252 25.1058 27.86C25.1058 23.996 28.6098 22.052 35.6178 22.028V20.732C35.6178 19.004 35.3658 17.684 34.8618 16.772C34.3578 15.86 33.4218 15.404 32.0538 15.404C31.2858 15.404 30.6618 15.596 30.1818 15.98C29.7018 16.364 29.3778 16.784 29.2098 17.24C28.8018 18.488 28.1898 19.112 27.3738 19.112C26.5818 19.112 26.1858 18.668 26.1858 17.78C26.1858 16.868 26.7858 16.112 27.9858 15.512C29.1858 14.912 30.6378 14.612 32.3418 14.612C34.0458 14.612 35.4378 15.104 36.5178 16.088C37.5978 17.048 38.1378 18.476 38.1378 20.372ZM27.8418 28.004C27.8418 28.94 28.0698 29.72 28.5258 30.344C28.9818 30.944 29.7018 31.244 30.6858 31.244C31.6938 31.244 32.6058 30.764 33.4218 29.804C34.2378 28.82 34.7898 27.74 35.0778 26.564C35.3898 25.364 35.5698 24.128 35.6178 22.856C32.9538 22.88 30.9858 23.372 29.7138 24.332C28.4658 25.292 27.8418 26.516 27.8418 28.004ZM55.4113 15.764H50.2993V23.864C50.2993 26.432 50.3713 28.184 50.5153 29.12C50.6833 30.056 50.9113 30.644 51.1993 30.884C51.7513 31.34 52.6273 31.568 53.8273 31.568L53.8993 32H44.2153L44.2873 31.568C44.8633 31.568 45.3193 31.544 45.6553 31.496C46.0153 31.448 46.3393 31.316 46.6273 31.1C46.9153 30.884 47.1193 30.644 47.2393 30.38C47.3833 30.092 47.5033 29.624 47.5993 28.976C47.7193 28.136 47.7793 26.432 47.7793 23.864V15.764H44.4673V14.972H47.7793C47.7793 11.444 48.3913 8.936 49.6153 7.448C50.8633 5.936 52.6633 5.18 55.0153 5.18C56.3593 5.18 57.7633 5.552 59.2273 6.296C60.6913 7.016 61.4233 7.916 61.4233 8.996C61.4233 9.428 61.2553 9.8 60.9193 10.112C60.6073 10.424 60.1993 10.58 59.6953 10.58C59.1913 10.58 58.7473 10.352 58.3633 9.896C57.9793 9.416 57.6793 8.9 57.4633 8.348C57.2473 7.796 56.8993 7.292 56.4193 6.836C55.9633 6.356 55.3873 6.116 54.6913 6.116C51.7633 6.116 50.2993 8.264 50.2993 12.56V14.972C51.7633 14.972 53.8033 14.912 56.4193 14.792C59.0593 14.672 60.7393 14.612 61.4593 14.612V26.06C61.4593 28.58 61.6033 30.128 61.8913 30.704C62.2033 31.28 63.0673 31.568 64.4833 31.568L64.5553 32H55.7713L55.8433 31.568C57.2833 31.568 58.1593 31.28 58.4713 30.704C58.7833 30.104 58.9393 28.532 58.9393 25.988V23.468C58.9393 20.756 58.8673 18.968 58.7233 18.104C58.5793 17.216 58.3633 16.664 58.0753 16.448C57.5233 15.992 56.6353 15.764 55.4113 15.764ZM82.5331 32C81.1891 32 79.8211 30.98 78.4291 28.94C77.8531 28.076 77.2771 27.212 76.7011 26.348C75.2851 24.236 74.0011 23.096 72.8491 22.928V26.06C72.8491 28.556 73.0051 30.104 73.3171 30.704C73.6291 31.28 74.4811 31.568 75.8731 31.568L75.9451 32H67.1611L67.2331 31.568C68.6731 31.568 69.5491 31.268 69.8611 30.668C70.1731 30.044 70.3291 28.4 70.3291 25.736V11.948C70.3291 10.076 70.2691 8.792 70.1491 8.096C70.0291 7.376 69.8371 6.944 69.5731 6.8C69.0451 6.512 68.2651 6.368 67.2331 6.368L67.1611 5.936C68.9611 5.672 70.8571 5.54 72.8491 5.54V22.316C74.2651 22.22 75.5971 21.5 76.8451 20.156C78.0931 18.788 78.7171 17.564 78.7171 16.484C78.7171 16.076 78.6091 15.788 78.3931 15.62C78.1771 15.452 77.8171 15.368 77.3131 15.368L77.2411 14.972H84.9091L84.8371 15.368C83.2771 15.368 82.1371 15.728 81.4171 16.448C80.6971 17.168 79.9411 17.96 79.1491 18.824C78.3571 19.688 77.7811 20.312 77.4211 20.696C76.4611 21.68 75.4651 22.304 74.4331 22.568C75.5131 22.712 76.4971 23.12 77.3851 23.792C78.2731 24.464 79.0171 25.232 79.6171 26.096C80.2171 26.936 80.8051 27.776 81.3811 28.616C82.7731 30.584 84.3331 31.568 86.0611 31.568L86.1331 32H82.5331ZM100.532 20.372V24.008C100.532 26.672 100.616 28.424 100.784 29.264C100.952 30.08 101.36 30.488 102.008 30.488C102.416 30.488 102.956 30.32 103.628 29.984L103.808 30.344C103.616 30.488 103.364 30.668 103.052 30.884C102.74 31.076 102.104 31.34 101.144 31.676C100.184 32.012 99.2597 32.18 98.3717 32.18C98.1317 31.172 98.0117 29.564 98.0117 27.356C97.4837 28.844 96.7877 30.056 95.9237 30.992C95.0837 31.904 93.9077 32.36 92.3957 32.36C90.8837 32.36 89.6837 31.964 88.7957 31.172C87.9317 30.356 87.4997 29.252 87.4997 27.86C87.4997 23.996 91.0037 22.052 98.0117 22.028V20.732C98.0117 19.004 97.7597 17.684 97.2557 16.772C96.7517 15.86 95.8157 15.404 94.4477 15.404C93.6797 15.404 93.0557 15.596 92.5757 15.98C92.0957 16.364 91.7717 16.784 91.6037 17.24C91.1957 18.488 90.5837 19.112 89.7677 19.112C88.9757 19.112 88.5797 18.668 88.5797 17.78C88.5797 16.868 89.1797 16.112 90.3797 15.512C91.5797 14.912 93.0317 14.612 94.7357 14.612C96.4397 14.612 97.8317 15.104 98.9117 16.088C99.9917 17.048 100.532 18.476 100.532 20.372ZM90.2357 28.004C90.2357 28.94 90.4637 29.72 90.9197 30.344C91.3757 30.944 92.0957 31.244 93.0797 31.244C94.0877 31.244 94.9997 30.764 95.8157 29.804C96.6317 28.82 97.1837 27.74 97.4717 26.564C97.7837 25.364 97.9637 24.128 98.0117 22.856C95.3477 22.88 93.3797 23.372 92.1077 24.332C90.8597 25.292 90.2357 26.516 90.2357 28.004ZM111.685 14.972H116.113V15.764H111.685V29.48C111.685 29.984 111.805 30.392 112.045 30.704C112.285 30.992 112.597 31.136 112.981 31.136C113.845 31.136 114.865 30.884 116.041 30.38L116.113 30.776C114.433 31.832 112.945 32.36 111.649 32.36C110.809 32.36 110.185 32.156 109.777 31.748C109.369 31.34 109.165 30.632 109.165 29.624V15.764H107.005V14.972C108.301 14.972 109.201 14.612 109.705 13.892C110.233 13.148 110.629 12.056 110.893 10.616L111.685 10.544V14.972ZM121.903 10.292C121.495 9.884 121.291 9.404 121.291 8.852C121.291 8.3 121.495 7.82 121.903 7.412C122.311 7.004 122.791 6.8 123.343 6.8C123.895 6.8 124.375 7.004 124.783 7.412C125.191 7.82 125.395 8.3 125.395 8.852C125.395 9.404 125.191 9.884 124.783 10.292C124.375 10.7 123.895 10.904 123.343 10.904C122.791 10.904 122.311 10.7 121.903 10.292ZM124.711 14.612V26.06C124.711 28.58 124.855 30.128 125.143 30.704C125.455 31.28 126.319 31.568 127.735 31.568L127.807 32H119.023L119.095 31.568C120.535 31.568 121.411 31.28 121.723 30.704C122.035 30.104 122.191 28.532 122.191 25.988V23.468C122.191 20.684 122.107 18.848 121.939 17.96C121.795 17.048 121.579 16.46 121.291 16.196C120.715 15.668 119.827 15.404 118.627 15.404L118.555 15.008C120.643 14.744 122.695 14.612 124.711 14.612ZM130.971 23.504C130.971 20.984 131.691 18.872 133.131 17.168C134.571 15.464 136.527 14.612 138.999 14.612C141.471 14.612 143.463 15.464 144.975 17.168C146.487 18.872 147.243 20.984 147.243 23.504C147.243 26.024 146.511 28.136 145.047 29.84C143.607 31.52 141.651 32.36 139.179 32.36C136.707 32.36 134.715 31.508 133.203 29.804C131.715 28.1 130.971 26 130.971 23.504ZM135.111 29.336C136.071 30.872 137.427 31.64 139.179 31.64C140.931 31.64 142.251 30.884 143.139 29.372C144.051 27.86 144.507 25.916 144.507 23.54C144.507 21.14 144.027 19.172 143.067 17.636C142.107 16.1 140.751 15.332 138.999 15.332C137.271 15.332 135.951 16.1 135.039 17.636C134.151 19.148 133.707 21.092 133.707 23.468C133.707 25.844 134.175 27.8 135.111 29.336ZM156.557 14.612V21.056C156.773 19.328 157.373 17.828 158.357 16.556C159.341 15.26 160.649 14.612 162.281 14.612C165.953 14.612 167.789 16.532 167.789 20.372V26.06C167.789 28.556 167.945 30.104 168.257 30.704C168.593 31.28 169.457 31.568 170.849 31.568L170.921 32H162.173L162.245 31.568C163.685 31.568 164.549 31.268 164.837 30.668C165.125 30.068 165.269 28.424 165.269 25.736V20.732C165.269 19.076 165.005 17.828 164.477 16.988C163.973 16.148 163.157 15.728 162.029 15.728C160.925 15.728 160.001 16.112 159.257 16.88C158.513 17.624 157.961 18.572 157.601 19.724C156.905 21.956 156.557 24.2 156.557 26.456C156.557 28.712 156.701 30.128 156.989 30.704C157.301 31.28 158.165 31.568 159.581 31.568L159.653 32H150.869L150.941 31.568C152.381 31.568 153.257 31.28 153.569 30.704C153.881 30.104 154.037 28.532 154.037 25.988V23.108C154.037 19.508 153.857 17.336 153.497 16.592C153.377 16.328 153.161 16.088 152.849 15.872C152.561 15.656 152.237 15.524 151.877 15.476C151.541 15.428 151.073 15.404 150.473 15.404L150.401 15.008C152.489 14.744 154.541 14.612 156.557 14.612Z" fill="white"/>
<path d="M0 21.812H172.001V21.956H0V21.812Z" fill="white"/>
</svg>
